<svg width="1210" height="376" viewBox="0 0 1210 376" fill="none" xmlns="http://www.w3.org/2000/svg">
<g filter="url(#filter0_d_229_11)">
<path d="M0.306152 279.512V8.58089H95.1322C116.291 8.58089 133.837 12.1933 147.77 19.4181C161.704 26.385 172.025 36.0611 178.734 48.4465C185.701 60.574 189.184 74.3786 189.184 89.8604C189.184 104.568 185.83 118.115 179.121 130.5C172.67 142.628 162.478 152.304 148.544 159.528C134.611 166.753 116.807 170.366 95.1322 170.366H41.3329V279.512H0.306152ZM41.3329 136.693H93.197C112.549 136.693 126.354 132.564 134.611 124.307C143.126 115.792 147.383 104.31 147.383 89.8604C147.383 74.8946 143.126 63.2833 134.611 55.0263C126.354 46.5113 112.549 42.2538 93.197 42.2538H41.3329V136.693Z" fill="white"/>
<path d="M242.564 51.1558C234.823 51.1558 228.372 48.8336 223.212 44.189C218.309 39.2865 215.858 33.2228 215.858 25.9979C215.858 18.7731 218.309 12.8384 223.212 8.19385C228.372 3.29128 234.823 0.839996 242.564 0.839996C250.305 0.839996 256.627 3.29128 261.529 8.19385C266.69 12.8384 269.27 18.7731 269.27 25.9979C269.27 33.2228 266.69 39.2865 261.529 44.189C256.627 48.8336 250.305 51.1558 242.564 51.1558ZM222.051 279.512V87.5381H263.077V279.512H222.051Z" fill="white"/>
<path d="M289.812 279.512L357.931 183.525L289.812 87.5381H333.548L385.025 161.077L436.115 87.5381H480.238L412.118 183.525L480.238 279.512H436.115L385.025 205.974L333.548 279.512H289.812Z" fill="white"/>
<path d="M585.128 284.157C566.292 284.157 549.52 280.028 534.812 271.772C520.362 263.257 509.009 251.516 500.752 236.55C492.495 221.585 488.367 204.168 488.367 184.299C488.367 164.173 492.366 146.498 500.365 131.274C508.622 116.05 519.975 104.181 534.425 95.666C549.133 87.151 566.163 82.8935 585.515 82.8935C604.351 82.8935 620.736 87.151 634.669 95.666C648.603 103.923 659.44 115.018 667.181 128.952C674.922 142.886 678.793 158.238 678.793 175.01C678.793 177.591 678.664 180.429 678.406 183.525C678.406 186.364 678.277 189.589 678.019 193.201H528.619C529.909 211.78 535.973 225.971 546.81 235.776C557.906 245.323 570.678 250.097 585.128 250.097C596.739 250.097 606.415 247.517 614.156 242.356C622.155 236.937 628.09 229.713 631.96 220.682H672.987C667.826 238.744 657.505 253.838 642.023 265.966C626.8 278.093 607.834 284.157 585.128 284.157ZM585.128 116.566C571.452 116.566 559.325 120.695 548.746 128.952C538.166 136.951 531.716 149.078 529.393 165.334H637.766C636.992 150.368 631.702 138.499 621.897 129.726C612.092 120.953 599.835 116.566 585.128 116.566Z" fill="white"/>
<path d="M712.515 279.512V0.839996H753.542V279.512H712.515Z" fill="white"/>
<path d="M819.872 51.1558C812.131 51.1558 805.681 48.8336 800.52 44.189C795.618 39.2865 793.166 33.2228 793.166 25.9979C793.166 18.7731 795.618 12.8384 800.52 8.19385C805.681 3.29128 812.131 0.839996 819.872 0.839996C827.613 0.839996 833.935 3.29128 838.838 8.19385C843.998 12.8384 846.578 18.7731 846.578 25.9979C846.578 33.2228 843.998 39.2865 838.838 44.189C833.935 48.8336 827.613 51.1558 819.872 51.1558ZM799.359 279.512V87.5381H840.386V279.512H799.359Z" fill="white"/>
<path d="M895.374 279.512V121.985H867.894V87.5381H895.374V59.6708C895.374 38.7704 900.535 23.8047 910.856 14.7736C921.435 5.48454 936.272 0.839996 955.366 0.839996H975.493V35.674H961.559C952.528 35.674 946.077 37.6093 942.207 41.4797C938.336 45.0922 936.401 51.2849 936.401 60.0579V87.5381H980.524V121.985H936.401V279.512H895.374Z" fill="white"/>
<path d="M1033.1 364.662L1079.16 263.644H1067.94L992.076 87.5381H1036.59L1095.42 229.584L1156.96 87.5381H1200.31L1076.45 364.662H1033.1Z" fill="white"/>
</g>
<defs>
<filter id="filter0_d_229_11" x="0.306152" y="0.839996" width="1209" height="374.822" filterUnits="userSpaceOnUse" color-interpolation-filters="sRGB">
<feFlood flood-opacity="0" result="BackgroundImageFix"/>
<feColorMatrix in="SourceAlpha" type="matrix" values="0 0 0 0 0 0 0 0 0 0 0 0 0 0 0 0 0 0 127 0" result="hardAlpha"/>
<feOffset dx="5" dy="7"/>
<feGaussianBlur stdDeviation="2"/>
<feComposite in2="hardAlpha" operator="out"/>
<feColorMatrix type="matrix" values="0 0 0 0 0 0 0 0 0 1 0 0 0 0 1 0 0 0 1 0"/>
<feBlend mode="normal" in2="BackgroundImageFix" result="effect1_dropShadow_229_11"/>
<feBlend mode="normal" in="SourceGraphic" in2="effect1_dropShadow_229_11" result="shape"/>
</filter>
</defs>
</svg>
