<svg id="Layer_1" enable-background="new 0 0 512 512" viewBox="0 0 512 512" xmlns="http://www.w3.org/2000/svg" xmlns:xlink="http://www.w3.org/1999/xlink"><linearGradient id="SVGID_1_" gradientUnits="userSpaceOnUse" x1=".002" x2="511.998" y1="256" y2="256"><stop offset="0" stop-color="#a647fe"/><stop offset=".1488" stop-color="#a04cfc"/><stop offset=".3414" stop-color="#905af8"/><stop offset=".5582" stop-color="#7571f0"/><stop offset=".7908" stop-color="#5191e5"/><stop offset="1" stop-color="#29b4d9"/></linearGradient><path d="m386.08 272.77c-8.02-4.63-17.35-5.87-26.24-3.48l-19.03 5.1-17.92-66.88c-2.06-7.71-7.02-14.17-13.96-18.18s-15-5.08-22.7-3.02c-7.71 2.06-14.16 7.02-18.17 13.96s-5.08 15-3.02 22.7l2.51 9.37-74.23 47.06-49.22 13.18c-24.34 6.52-41.19 27.15-44.14 50.74l-15.69 4.2c-5.17 1.4-9.49 4.73-12.16 9.38-2.66 4.64-3.37 10.03-1.98 15.13l5.31 19.93c2.42 8.91 10.55 14.81 19.4 14.81 1.7 0 3.43-.22 5.15-.67l15.67-4.2c4.79 6.33 10.86 11.71 17.96 15.82 9.31 5.38 19.63 8.13 30.07 8.13 5.19 0 10.42-.68 15.56-2.06l.76-.2 18.57 69.3c1.94 7.15 8.47 11.88 15.59 11.88 1.36 0 2.74-.17 4.11-.54l26.24-7.05c4.13-1.09 7.6-3.73 9.76-7.44 2.17-3.73 2.76-8.07 1.65-12.25l-17.83-66.49 78.16 3.22 2.51 9.37c2.06 7.71 7.03 14.16 13.99 18.17 4.62 2.66 9.74 4.02 14.91 4.02 2.48 0 4.98-.31 7.43-.95.12-.03.24-.06.36-.09 15.94-4.27 25.43-20.71 21.16-36.66l-17.92-66.88 19.05-5.11c8.89-2.39 16.33-8.12 20.96-16.14s5.87-17.34 3.48-26.21c-2.37-8.89-8.1-16.34-16.11-20.97zm-290.22 117.9c-2.14.57-4.43-.75-4.99-2.84l-5.31-19.93c-.37-1.37.1-2.48.41-3.02.32-.55 1.06-1.53 2.45-1.91l11.77-3.15c.33 2.15.77 4.31 1.35 6.46l4.02 14.96c.57 2.14 1.27 4.23 2.06 6.27zm45.75 13.22c-10.25-5.92-17.57-15.43-20.61-26.79l-4.02-14.96c-1.06-3.97-1.53-7.95-1.49-11.87.03-.4.05-.8.02-1.21.72-18.85 13.57-35.89 32.73-41.02l42.68-11.43 26.88 100.3-33.8 9.07c-.14.03-.27.05-.41.09s-.27.09-.4.13l-8.07 2.17c-11.36 3.03-23.26 1.44-33.51-4.48zm98.79 77.86-26.24 7.05c-.07.01-.16-.05-.17-.06l-18.56-69.28 26.48-7.1 18.56 69.27c.02.04-.03.11-.07.12zm-6.63-86.93-27.97-104.38 66.08-41.89 40.05 149.5zm117.81 34.42c-.1.02-.19.05-.29.07-3.56.96-7.3.46-10.54-1.4-3.25-1.87-5.57-4.87-6.52-8.45l-3.98-14.87c-.03-.12-.06-.24-.1-.36l-49.66-185.38c-.96-3.58-.45-7.33 1.42-10.57s4.88-5.56 8.46-6.51c1.18-.32 2.39-.47 3.58-.47 2.42 0 4.82.64 6.99 1.89 3.24 1.87 5.55 4.88 6.51 8.46l19.96 74.48c.01.04.02.08.03.13.01.04.03.08.04.12l33.72 125.85c1.95 7.35-2.35 14.92-9.62 17.01zm33.29-117.28c-2.5 4.32-6.5 7.41-11.26 8.69l-19.04 5.1-9.63-35.92 19.04-5.1c4.78-1.28 9.79-.61 14.11 1.88s7.4 6.49 8.67 11.27c1.27 4.77.6 9.77-1.89 14.08zm121.2-37.77-61.65 16.5c-.69.19-1.39.27-2.07.27-3.53 0-6.76-2.36-7.72-5.93-1.14-4.26 1.39-8.65 5.66-9.79l61.65-16.5c4.27-1.15 8.65 1.39 9.79 5.66s-1.4 8.65-5.66 9.79zm-52.29-86.14-45.13 45.13c-1.56 1.56-3.61 2.34-5.65 2.34s-4.09-.78-5.65-2.34c-3.12-3.12-3.12-8.18 0-11.3l45.13-45.13c3.12-3.12 8.18-3.12 11.3 0 3.12 3.11 3.12 8.17 0 11.3zm51.59 181.23c-.96 3.57-4.19 5.93-7.72 5.93-.69 0-1.38-.09-2.07-.28l-61.65-16.53c-4.26-1.14-6.79-5.53-5.65-9.79s5.53-6.8 9.79-5.65l61.65 16.53c4.27 1.14 6.8 5.53 5.65 9.79zm-370.97-136.46c2.19 2.38 5.2 3.65 8.28 3.65 1.57 0 3.16-.33 4.67-1.02.04-.02.09-.04.13-.06 4.45-2.13 6.99-6.83 6.31-11.67l-3.54-25.7h24.13c13.66 0 24.77-11.1 24.77-24.75v-85.13c0-13.66-11.11-24.77-24.77-24.77h-149.6c-13.66 0-24.78 11.11-24.78 24.77v85.13c0 13.65 11.11 24.75 24.77 24.75h78.19zm-118.41-59.55v-85.13c0-4.84 3.94-8.79 8.79-8.79h149.61c4.85 0 8.79 3.94 8.79 8.79v85.13c0 4.83-3.94 8.76-8.79 8.76h-29.62c-3.18 0-6.13 1.31-8.32 3.69-.07.08-.15.16-.22.24-2.12 2.5-3.02 5.67-2.56 8.83l2.17 15.77-22.47-24.87c-2.17-2.36-5.12-3.66-8.29-3.66h-80.3c-4.85 0-8.79-3.93-8.79-8.76zm29.99-60.41c0-4.42 3.58-7.99 7.99-7.99h91.19c4.41 0 7.99 3.58 7.99 7.99s-3.58 7.99-7.99 7.99h-91.19c-4.41 0-7.99-3.57-7.99-7.99zm56.47 43.68h-48.48c-4.41 0-7.99-3.58-7.99-7.99s3.58-7.99 7.99-7.99h48.47c4.42 0 7.99 3.58 7.99 7.99s-3.57 7.99-7.98 7.99zm225.21-18.71c2.46 2.5 5.75 3.87 9.26 3.87 3.51 0 6.8-1.38 9.22-3.83l53.32-53.29c17.61-17.61 17.61-46.27 0-63.89-17.76-17.73-41.54-17.94-62.53-.78-21.03-17.15-44.81-16.94-62.56.78-17.61 17.61-17.61 46.27 0 63.89zm-41.98-105.83c6.43-6.42 13.02-8.69 19.12-8.69 10.23 0 19.09 6.38 23.52 10.25 4.87 4.29 12.26 4.31 17.21.01 7.08-6.2 25.41-18.77 42.63-1.58 11.38 11.38 11.38 29.9 0 41.27l-51.24 51.21-51.24-51.21c-11.37-11.36-11.37-29.88 0-41.26z" fill="url(#SVGID_1_)"/></svg>