<svg width="29" height="29" viewBox="0 0 29 29" fill="none" xmlns="http://www.w3.org/2000/svg">
<path d="M14.0699 10.9087C12.359 10.9087 10.9636 12.3041 10.9636 14.015C10.9636 15.726 12.359 17.1214 14.0699 17.1214C15.7809 17.1214 17.1763 15.726 17.1763 14.015C17.1763 12.3041 15.7809 10.9087 14.0699 10.9087Z" fill="white"/>
<path d="M18.2441 6.39453H9.89577C8.00283 6.39453 6.44965 7.93557 6.44965 9.84064V18.189C6.44965 20.0819 7.9907 21.6351 9.89577 21.6351H18.2441C20.137 21.6351 21.6902 20.094 21.6902 18.189V9.84064C21.6781 7.93557 20.137 6.39453 18.2441 6.39453ZM14.0699 18.6865C11.4853 18.6865 9.38613 16.5873 9.38613 14.0027C9.38613 11.4181 11.4853 9.31887 14.0699 9.31887C16.6545 9.31887 18.7537 11.4181 18.7537 14.0027C18.7416 16.5873 16.6424 18.6865 14.0699 18.6865ZM19.0814 10.1076C18.4625 10.1076 17.9529 9.59796 17.9529 8.97912C17.9529 8.36027 18.4625 7.85063 19.0814 7.85063C19.7002 7.85063 20.2098 8.36027 20.2098 8.97912C20.2098 9.61009 19.7123 10.1076 19.0814 10.1076Z" fill="white"/>
<path d="M14.0699 0C6.32831 0 0.0549316 6.27338 0.0549316 14.015C0.0549316 21.7566 6.32831 28.03 14.0699 28.03C21.8116 28.03 28.0849 21.7566 28.0849 14.015C28.0728 6.27338 21.7994 0 14.0699 0ZM23.2555 18.1892C23.2555 20.9558 20.9986 23.2127 18.232 23.2127H9.89577C7.12917 23.2127 4.87221 20.9558 4.87221 18.1892V9.84084C4.87221 7.07424 7.12917 4.81728 9.89577 4.81728H18.2441C21.0107 4.81728 23.2677 7.07424 23.2677 9.84084V18.1892H23.2555Z" fill="white"/>
</svg>
