<svg xmlns="http://www.w3.org/2000/svg" version="1.1" xmlns:xlink="http://www.w3.org/1999/xlink" width="512" height="512" x="0" y="0" viewBox="0 0 512 512" style="enable-background:new 0 0 512 512" xml:space="preserve" class=""><g><linearGradient id="a" x1="0" x2="512" y1="256" y2="256" gradientUnits="userSpaceOnUse"><stop stop-opacity="1" stop-color="#a647fe" offset="0"></stop><stop stop-opacity="1" stop-color="#a04cfc" offset="0.15057915057915058"></stop><stop stop-opacity="1" stop-color="#905af8" offset="0.2548262548262548"></stop><stop stop-opacity="1" stop-color="#7571f0" offset="0.39768339768339767"></stop><stop stop-opacity="1" stop-color="#5191e5" offset="0.5444015444015444"></stop><stop stop-opacity="1" stop-color="#29b4d9" offset="0.7335907335907336"></stop><stop stop-opacity="1" stop-color="#48ceb5" offset="0.9613899613899614"></stop></linearGradient><path fill="url(#a)" d="M492 393.332h-58.668V118.668H492c11.047 0 20-8.953 20-20s-8.953-20-20-20h-58.668V20c0-11.047-8.953-20-20-20s-20 8.953-20 20v58.668H118.668V20c0-11.047-8.953-20-20-20s-20 8.953-20 20v58.668H20c-11.047 0-20 8.953-20 20s8.953 20 20 20h58.668v274.668H20c-11.047 0-20 8.953-20 20 0 11.043 8.953 20 20 20h58.668V492c0 11.047 8.953 20 20 20s20-8.953 20-20v-58.668h274.668V492c0 11.047 8.953 20 20 20 11.043 0 20-8.953 20-20v-58.668H492c11.047 0 20-8.953 20-20s-8.953-20-20-20zM393.332 236H276V118.668h117.332zM236 118.668V236H118.668V118.668zM118.668 276H236v117.332H118.668zM276 393.332V276h117.332v117.332zm0 0" opacity="1" data-original="url(#a)" class=""></path></g></svg>