<svg width="81" height="80" viewBox="0 0 81 80" fill="none" xmlns="http://www.w3.org/2000/svg">
<g clip-path="url(#clip0_158_233)">
<path d="M40.4984 18.0843C28.4172 18.0843 18.5875 27.9155 18.5875 39.9999C18.5875 52.0843 28.4172 61.9155 40.4984 61.9155C52.5828 61.9155 62.4141 52.0843 62.4141 39.9999C62.4141 27.9155 52.5813 18.0843 40.4984 18.0843ZM40.4984 59.4171C29.7938 59.4171 21.0859 50.7062 21.0859 39.9999C21.0859 29.2937 29.7938 20.5827 40.4984 20.5827C51.2047 20.5827 59.9156 29.2937 59.9156 39.9999C59.9156 50.7062 51.2047 59.4171 40.4984 59.4171ZM40.4984 24.9093C32.1781 24.9093 25.4078 31.678 25.4078 39.9999C25.4078 48.3202 32.1766 55.0905 40.4984 55.0905C48.8219 55.0905 55.5922 48.3218 55.5922 39.9999C55.5922 31.6796 48.8203 24.9093 40.4984 24.9093ZM40.4984 52.5921C33.5547 52.5921 27.9063 46.9437 27.9063 39.9999C27.9063 33.0562 33.5547 27.4077 40.4984 27.4077C47.4438 27.4077 53.0953 33.0562 53.0953 39.9999C53.0938 46.9437 47.4438 52.5921 40.4984 52.5921ZM40.4984 31.7312C35.9391 31.7312 32.2297 35.4405 32.2297 39.9999C32.2297 44.5593 35.9391 48.2687 40.4984 48.2687C45.0609 48.2687 48.7719 44.5593 48.7719 39.9999C48.7719 35.4405 45.0594 31.7312 40.4984 31.7312ZM40.4984 45.7702C37.3156 45.7702 34.7266 43.1812 34.7266 39.9999C34.7266 36.8187 37.3156 34.228 40.4984 34.228C43.6828 34.228 46.2734 36.8171 46.2734 39.9999C46.2734 43.1827 43.6828 45.7702 40.4984 45.7702ZM44.6453 37.1937C45.1328 37.6812 45.1328 38.4718 44.6453 38.9593L40.8016 42.803C40.5578 43.0468 40.2375 43.1687 39.9188 43.1687C39.6 43.1687 39.2797 43.0468 39.0359 42.803L36.3563 40.1233C35.8688 39.6358 35.8688 38.8452 36.3563 38.3577C36.8438 37.8702 37.6344 37.8702 38.1219 38.3577L39.9188 40.1546L42.8797 37.1937C43.3672 36.7062 44.1578 36.7062 44.6453 37.1937ZM16.0281 39.1171C16.5156 39.6046 16.5156 40.3952 16.0281 40.8827L12.2109 44.6999C11.9672 44.9436 11.6469 45.0655 11.3281 45.0655C11.0094 45.0655 10.6891 44.9436 10.4453 44.6999C9.95781 44.2124 9.95781 43.4218 10.4453 42.9343L12.1313 41.2483H1.75156C1.0625 41.2483 0.503125 40.689 0.503125 39.9999C0.503125 39.3108 1.0625 38.7515 1.75156 38.7515H12.1297L10.4438 37.0655C9.95625 36.578 9.95625 35.7874 10.4438 35.2999C10.9313 34.8124 11.7219 34.8124 12.2094 35.2999L16.0281 39.1171ZM80.4969 39.9999C80.4969 40.6905 79.9375 41.2483 79.2484 41.2483H68.8703L70.5563 42.9343C71.0438 43.4218 71.0438 44.2124 70.5563 44.6999C70.3125 44.9436 69.9922 45.0655 69.6734 45.0655C69.3547 45.0655 69.0344 44.9436 68.7906 44.6999L64.9719 40.8827C64.7375 40.6483 64.6063 40.3312 64.6063 39.9999C64.6063 39.6687 64.7375 39.3515 64.9719 39.1171L68.7906 35.2999C69.2781 34.8124 70.0688 34.8124 70.5563 35.2999C71.0438 35.7874 71.0438 36.578 70.5563 37.0655L68.8703 38.7515H79.2484C79.9375 38.7515 80.4969 39.3093 80.4969 39.9999ZM35.8016 11.7124C35.3141 11.2249 35.3141 10.4343 35.8016 9.94678C36.2891 9.45928 37.0797 9.45928 37.5672 9.94678L39.2484 11.628V1.2499C39.2484 0.559277 39.8078 0.00146484 40.4969 0.00146484C41.1859 0.00146484 41.7453 0.56084 41.7453 1.2499V11.6312L43.4313 9.94678C43.9188 9.45928 44.7109 9.45928 45.1984 9.94834C45.6859 10.4358 45.6859 11.2265 45.1969 11.714L41.3797 15.528C41.1359 15.7718 40.8156 15.8937 40.4969 15.8937C40.1766 15.8937 39.8578 15.7718 39.6141 15.528L35.8016 11.7124ZM45.1984 68.2921C45.6859 68.7796 45.6859 69.5702 45.1984 70.0577C44.9547 70.3015 44.6344 70.4233 44.3156 70.4233C43.9969 70.4233 43.6766 70.3015 43.4328 70.0577L41.7469 68.3718V78.7499C41.7469 79.4405 41.1875 79.9983 40.4984 79.9983C39.8094 79.9983 39.25 79.439 39.25 78.7499V68.3749L37.5688 70.0577C37.0813 70.5452 36.2906 70.5468 35.8031 70.0593C35.3156 69.5718 35.3141 68.7812 35.8016 68.2936L39.6156 64.4765C39.85 64.2421 40.1672 64.1108 40.4984 64.1108C40.8297 64.1108 41.1469 64.2421 41.3813 64.4765L45.1984 68.2921Z" fill="url(#paint0_linear_158_233)"/>
</g>
<defs>
<linearGradient id="paint0_linear_158_233" x1="0.502656" y1="39.9999" x2="80.4974" y2="39.9999" gradientUnits="userSpaceOnUse">
<stop stop-color="#A647FE"/>
<stop offset="0.1488" stop-color="#A04CFC"/>
<stop offset="0.3414" stop-color="#905AF8"/>
<stop offset="0.5582" stop-color="#7571F0"/>
<stop offset="0.7908" stop-color="#5191E5"/>
<stop offset="1" stop-color="#29B4D9"/>
</linearGradient>
<clipPath id="clip0_158_233">
<rect width="80" height="80" fill="white" transform="translate(0.5)"/>
</clipPath>
</defs>
</svg>
