<svg width="81" height="80" viewBox="0 0 81 80" fill="none" xmlns="http://www.w3.org/2000/svg">
<g clip-path="url(#clip0_158_228)">
<path d="M75.8766 44.4579C75.8531 44.4189 75.8266 44.3829 75.7984 44.347C70.0109 36.9204 70.0234 33.9173 70.0391 30.4423C70.0437 29.4845 70.0469 28.4954 69.9453 27.372C69.5625 23.1376 68.25 19.1829 66.0438 15.6157C63.9953 12.3032 61.225 9.39543 57.8094 6.97356C51.4062 2.43293 42.9687 -0.107693 34.675 0.00168247C26.7406 0.10637 19.4016 2.61418 14.0078 7.06262C7.83906 12.1501 4.27344 19.647 3.69375 28.7454C3.69063 28.7829 3.69062 28.8204 3.69219 28.8595C3.94375 38.2048 7.84063 43.6345 11.2781 48.4251C15.8797 54.8376 19.8531 60.3751 14.1734 74.122C13.6203 75.4579 13.7656 76.9126 14.5672 78.1095C15.3672 79.3111 16.6547 80.0017 18.1031 80.0017H49.3688C51.3375 80.0017 53.0375 78.6657 53.5031 76.7517L54.8953 71.0111C63.1734 72.5782 67.6453 72.1298 69.7453 69.5548C71.2016 67.7704 71.2812 65.1798 69.9844 61.6595C71.2594 60.8814 72.0531 59.697 72.0891 58.4236C72.1016 57.9673 72.0156 57.0767 71.2875 56.2314C71.9453 55.6689 72.4766 54.9345 72.6641 54.0704C72.7641 53.6126 72.7875 53.0361 72.5797 52.3954C74.2656 52.2017 76.075 51.6829 76.9 50.1548C77.6813 48.7001 77.3469 46.8376 75.8766 44.4579ZM74.6953 48.9642C74.1844 49.9126 71.625 49.9829 70.3953 50.0173L70.2453 50.022C69.7297 50.0361 69.275 50.3673 69.1016 50.8532C68.9281 51.3392 69.0719 51.8829 69.4625 52.2204C69.8625 52.5657 70.3172 53.0736 70.2156 53.5361C70.0906 54.1095 69.2609 54.7236 68.5937 54.9157C68.0828 55.0642 67.7203 55.5204 67.6922 56.0517C67.6641 56.5829 67.9766 57.0751 68.4703 57.2751C68.8109 57.4142 69.6 57.7954 69.5844 58.3501C69.5703 58.8251 69.0156 59.4907 67.9797 59.8454C67.65 59.9579 67.3828 60.2017 67.2422 60.5204C67.1 60.8376 67.0984 61.2001 67.2344 61.5204C68.5625 64.6376 68.7547 66.8079 67.8047 67.972C65.625 70.6454 57.0328 68.8986 54.2094 68.3251C53.55 68.1923 52.9031 68.6032 52.7437 69.2564L51.0703 76.1595C50.875 76.9611 50.1906 77.4986 49.3672 77.4986H18.1016C17.4891 77.4986 16.9875 77.2314 16.6469 76.7204C16.3062 76.2126 16.25 75.6439 16.4844 75.0782C16.4844 75.0782 16.4844 75.0782 16.4844 75.0767C22.6953 60.0439 18.1359 53.6907 13.3094 46.9642C9.93125 42.2564 6.43906 37.3892 6.19375 28.8454C7.44219 9.68762 21.7375 2.67668 34.7094 2.50325C34.8719 2.50168 35.0344 2.50012 35.1969 2.50012C49.8266 2.50012 65.9734 11.2173 67.4547 27.5954C67.5453 28.6001 67.5422 29.5314 67.5375 30.4298C67.5219 34.1986 67.5063 37.7579 73.7828 45.8282C74.6625 47.2689 74.9953 48.4095 74.6953 48.9642ZM28.7891 6.12356C25.5313 6.12356 22.8719 8.72824 22.7828 11.9642C22.5656 11.9439 22.3469 11.9345 22.1266 11.9345C18.2859 11.9345 15.1609 15.0564 15.1609 18.8954C15.1609 19.5064 15.2391 20.1032 15.3922 20.6798C13.4609 21.9814 12.2281 24.5361 12.2281 27.4251C12.2281 30.3126 13.4609 32.8657 15.3922 34.1657C15.2391 34.7439 15.1609 35.3407 15.1609 35.9501C15.1609 39.7907 18.2859 42.9142 22.1266 42.9142C22.3469 42.9142 22.5656 42.9048 22.7828 42.8845C22.8734 46.1204 25.5328 48.7251 28.7891 48.7251C32.1047 48.7251 34.8016 46.0282 34.8016 42.7126V12.1314C34.8016 8.81887 32.1031 6.12356 28.7891 6.12356ZM30.0391 45.9939V40.7439C30.0391 40.0532 29.4797 39.4923 28.7875 39.4923C28.0953 39.4923 27.5359 40.0517 27.5359 40.7439V45.9923C26.2187 45.4861 25.2813 44.2079 25.2813 42.7142C25.2813 42.3454 25.3375 41.9814 25.4484 41.6314C25.5953 41.1689 25.4609 40.6642 25.1047 40.3345C24.8688 40.1173 24.5641 40.0017 24.2547 40.0017C24.0969 40.0017 23.9375 40.0314 23.7844 40.0939C23.2609 40.3064 22.7016 40.4142 22.1234 40.4142C19.6625 40.4142 17.6609 38.4126 17.6609 35.9517C17.6609 35.3017 17.7984 34.6767 18.0672 34.0954C18.2125 33.7814 18.2219 33.4189 18.0906 33.0986C17.9594 32.7767 17.7016 32.5251 17.3781 32.4001C16.3391 32.0048 15.5125 30.9642 15.0734 29.6251H22.3531C23.0437 29.6251 23.6047 29.0657 23.6047 28.3736V24.8095H28.7844C29.475 24.8095 30.0359 24.2501 30.0359 23.5579C30.0359 22.8657 29.4766 22.3064 28.7844 22.3064H22.3531C21.6625 22.3064 21.1016 22.8657 21.1016 23.5579V27.122H14.7422C14.8313 24.9142 15.8906 23.0157 17.3828 22.447C17.7078 22.3236 17.9656 22.0704 18.0953 21.7486C18.2266 21.4267 18.2172 21.0657 18.0719 20.7517C17.8016 20.1689 17.6656 19.5439 17.6656 18.8954C17.6656 17.3673 18.4391 16.0173 19.6141 15.2142V18.7986C19.6141 19.4892 20.1734 20.0501 20.8656 20.0501H24.0328C24.7234 20.0501 25.2844 19.4907 25.2844 18.7986C25.2844 18.1064 24.725 17.547 24.0328 17.547H22.1172V14.4376H22.1281C22.7063 14.4376 23.2641 14.5454 23.7891 14.7579C24.2391 14.9407 24.7531 14.8454 25.1094 14.5173C25.4656 14.1876 25.5984 13.6829 25.4531 13.2204C25.3422 12.8704 25.2859 12.5048 25.2859 12.1329C25.2859 10.2001 26.8594 8.62668 28.7922 8.62668C30.7281 8.62668 32.3016 10.1986 32.3016 12.1329V16.4095H30.0422V14.0626C30.0422 13.372 29.4828 12.8111 28.7906 12.8111C28.0984 12.8111 27.5391 13.3704 27.5391 14.0626V17.6595C27.5391 18.3501 28.0984 18.9111 28.7906 18.9111H32.3V27.8142H27.1156C26.425 27.8142 25.8641 28.3736 25.8641 29.0657C25.8641 29.7579 26.4234 30.3173 27.1156 30.3173H32.3V34.5345H25.5094V33.1376C25.5094 32.447 24.95 31.8861 24.2578 31.8861C23.5656 31.8861 23.0062 32.4454 23.0062 33.1376V35.7861C23.0062 36.4767 23.5656 37.0376 24.2578 37.0376H32.2984V42.7173C32.2984 44.2095 31.3594 45.4892 30.0391 45.9939ZM56.1938 20.6782C56.3469 20.1001 56.4234 19.5032 56.4234 18.8939C56.4234 15.0564 53.3016 11.9329 49.4625 11.9329C49.2422 11.9329 49.0234 11.9423 48.8063 11.9626C48.7172 8.72668 46.0563 6.12199 42.7969 6.12199C39.4813 6.12199 36.7844 8.81731 36.7844 12.1298V42.7126C36.7844 46.0282 39.4813 48.7251 42.7969 48.7251C46.0547 48.7251 48.7156 46.1204 48.8063 42.8829C49.0234 42.9032 49.2422 42.9126 49.4625 42.9126C53.3 42.9126 56.4234 39.7876 56.4234 35.9486C56.4234 35.3392 56.3469 34.7439 56.1938 34.1657C58.1266 32.8642 59.3609 30.3095 59.3609 27.4236C59.3609 24.5361 58.1266 21.9798 56.1938 20.6782ZM54.2078 32.4001C53.8844 32.5236 53.6281 32.7751 53.4969 33.0954C53.3656 33.4157 53.3734 33.7751 53.5172 34.0892C53.7859 34.6767 53.9219 35.3032 53.9219 35.9517C53.9219 38.4126 51.9219 40.4142 49.4641 40.4142C48.8875 40.4142 48.3266 40.3064 47.7969 40.0923C47.3453 39.9111 46.8297 40.0064 46.475 40.3392C46.1203 40.672 45.9891 41.1798 46.1406 41.6423C46.2516 41.9845 46.3094 42.3454 46.3094 42.7157C46.3094 44.2111 45.3703 45.4892 44.05 45.9939V40.7439C44.05 40.0532 43.4906 39.4923 42.7984 39.4923C42.1062 39.4923 41.5469 40.0517 41.5469 40.7439V45.9939C40.2281 45.4892 39.2875 44.2095 39.2875 42.7157V37.0361H47.3281C48.0188 37.0361 48.5797 36.4767 48.5797 35.7845V33.1361C48.5797 32.4454 48.0203 31.8845 47.3281 31.8845C46.6359 31.8845 46.0766 32.4439 46.0766 33.1361V34.5329H39.2859V30.3157H44.4703C45.1609 30.3157 45.7219 29.7564 45.7219 29.0642C45.7219 28.372 45.1625 27.8126 44.4703 27.8126H39.2859V18.9095H42.7953C43.4859 18.9095 44.0469 18.3501 44.0469 17.6579V14.0626C44.0469 13.372 43.4875 12.8111 42.7953 12.8111C42.1031 12.8111 41.5437 13.3704 41.5437 14.0626V16.4079H39.2844V12.1314C39.2844 10.1986 40.8594 8.62512 42.7937 8.62512C44.7281 8.62512 46.3031 10.197 46.3031 12.1314C46.3031 12.5048 46.2469 12.8673 46.1344 13.2079C45.9828 13.6704 46.1141 14.1782 46.4688 14.5111C46.8234 14.8439 47.3391 14.9392 47.7906 14.7579C48.3203 14.5454 48.8812 14.4361 49.4578 14.4361H49.4641V17.5454H47.5531C46.8625 17.5454 46.3016 18.1048 46.3016 18.797C46.3016 19.4892 46.8609 20.0486 47.5531 20.0486H50.7156C51.4062 20.0486 51.9672 19.4892 51.9672 18.797V15.2126C53.1422 16.0157 53.9156 17.3673 53.9156 18.8954C53.9156 19.5439 53.7797 20.1704 53.5109 20.7579C53.3672 21.072 53.3594 21.4329 53.4906 21.7517C53.6219 22.0704 53.8797 22.3236 54.2016 22.447C55.6687 23.0079 56.75 24.9454 56.8422 27.122H50.4844V23.5579C50.4844 22.8673 49.925 22.3064 49.2328 22.3064H42.7969C42.1063 22.3064 41.5453 22.8657 41.5453 23.5579C41.5453 24.2501 42.1047 24.8095 42.7969 24.8095H47.9812V28.3736C47.9812 29.0642 48.5406 29.6251 49.2328 29.6251H56.5016C56.0563 30.9579 55.2266 32.0111 54.2078 32.4001Z" fill="url(#paint0_linear_158_228)"/>
</g>
<defs>
<linearGradient id="paint0_linear_158_228" x1="3.69094" y1="40.0001" x2="77.3091" y2="40.0001" gradientUnits="userSpaceOnUse">
<stop stop-color="#A647FE"/>
<stop offset="0.1488" stop-color="#A04CFC"/>
<stop offset="0.3414" stop-color="#905AF8"/>
<stop offset="0.5582" stop-color="#7571F0"/>
<stop offset="0.7908" stop-color="#5191E5"/>
<stop offset="1" stop-color="#29B4D9"/>
</linearGradient>
<clipPath id="clip0_158_228">
<rect width="80" height="80" fill="white" transform="translate(0.5)"/>
</clipPath>
</defs>
</svg>
