<svg width="81" height="80" viewBox="0 0 81 80" fill="none" xmlns="http://www.w3.org/2000/svg">
<g clip-path="url(#clip0_158_238)">
<path d="M26.0188 44.5249L32.3031 33.6452L29.9266 34.2827C29.2609 34.4624 28.575 34.0655 28.3969 33.3999C28.2188 32.7343 28.6141 32.0483 29.2797 31.8702L34.5688 30.453C34.8891 30.3671 35.2297 30.4124 35.5172 30.578C35.8047 30.7437 36.0141 31.0171 36.0984 31.3358L37.5156 36.6249C37.6938 37.2905 37.2984 37.9765 36.6328 38.1546C36.525 38.1843 36.4156 38.1968 36.3094 38.1968C35.7578 38.1968 35.2531 37.828 35.1031 37.2702L34.4672 34.8952L28.1828 45.7749C27.9516 46.1749 27.5313 46.3999 27.1 46.3999C26.8875 46.3999 26.6734 46.3452 26.4766 46.2327C25.8797 45.8858 25.675 45.1218 26.0188 44.5249ZM80.0969 71.8874C79.5625 72.814 78.6047 73.3671 77.5359 73.3671H23.6688C22.5969 73.3671 21.6375 72.814 21.1031 71.8874C20.5672 70.9593 20.5672 69.8515 21.1031 68.9249L40.1016 36.0218C40.1156 35.9952 40.1297 35.9702 40.1469 35.9436L44.6984 28.0608C45.7359 26.264 47.3938 25.1046 49.3547 24.7608V7.88272C49.3547 7.19209 49.9141 6.63428 50.6031 6.63428C51.2922 6.63428 51.8516 7.19365 51.8516 7.88272V9.36709H61.0547C61.8687 9.36709 62.6016 9.7874 63.0172 10.4921C63.4344 11.1843 63.45 12.0312 63.0516 12.7499L61.7016 15.214L62.4938 16.2343C63.0312 16.9249 63.1266 17.8468 62.7406 18.6374C62.3562 19.4249 61.5719 19.914 60.6922 19.914H51.8516V24.7624C53.8125 25.1077 55.4703 26.2655 56.5078 28.0624L80.0969 68.9249C80.6312 69.8515 80.6312 70.9593 80.0969 71.8874ZM51.8516 11.864V17.414H60.2484L59.6422 16.6343C59.0781 15.9046 59 14.9499 59.4375 14.1437L60.6859 11.864H51.8516ZM42.6422 36.6155L43.6484 38.3546C43.9187 38.8265 44.3469 39.0733 44.8875 39.0733C45.4312 39.0733 45.8609 38.8265 46.1297 38.3577L47.1937 36.514C47.9016 35.2827 49.175 34.5468 50.6016 34.5468C52.0234 34.5468 53.2969 35.2827 54.0047 36.5155L55.0703 38.3546C55.3422 38.8265 55.7703 39.0733 56.3109 39.0733C56.8547 39.0733 57.2844 38.8265 57.5531 38.3577L58.5594 36.614L54.3437 29.3108C53.5391 27.9171 52.2094 27.1499 50.6016 27.1499C48.9937 27.1499 47.6656 27.9171 46.8594 29.3108L42.6422 36.6155ZM77.9328 70.1733L60.0016 39.1108L59.7187 39.603C59.0109 40.8343 57.7359 41.5702 56.3109 41.5702C54.8891 41.5702 53.6156 40.8343 52.9078 39.6015L51.8422 37.7624C51.5703 37.2905 51.1422 37.0437 50.6016 37.0437C50.0578 37.0437 49.6281 37.2905 49.3594 37.7593L48.2953 39.603C47.5875 40.8343 46.3141 41.5702 44.8875 41.5702C43.4656 41.5702 42.1922 40.8343 41.4844 39.6015L41.2 39.1108L23.2656 70.1733C23.1734 70.3312 23.1734 70.4796 23.2656 70.639C23.3563 70.7952 23.4844 70.8687 23.6672 70.8687H77.5344C77.7172 70.8687 77.8406 70.7983 77.9313 70.639C78.025 70.4796 78.025 70.3327 77.9328 70.1733ZM21.6094 63.1843C21.6094 65.028 20.1094 66.528 18.2656 66.528C16.4234 66.528 14.9266 65.028 14.9266 63.1843V60.828H14.0844V63.8624C14.0844 64.2046 13.9969 64.5358 13.825 64.8452C13.8219 64.8515 13.8187 64.8577 13.8141 64.864L11.125 69.5187C10.5062 70.5905 9.48281 71.2062 8.31719 71.2062C7.09375 71.2062 5.90625 70.5171 5.29063 69.4515C4.70312 68.4343 4.71875 67.2405 5.33437 66.1749L7.89531 61.739V58.9921C7.34688 58.2483 7.02344 57.3296 7.02344 56.3374V53.8999L5.78125 55.1421C4.575 56.3483 2.6125 56.3483 1.40625 55.1421C0.823438 54.5593 0.501563 53.7827 0.501563 52.9546C0.501563 52.1265 0.821875 51.3499 1.40625 50.7671C2.01719 50.1562 2.61094 49.4921 3.18438 48.8499C4.9375 46.8874 6.84844 44.7499 9.42188 44.2499C7.95938 43.489 6.95781 41.9608 6.95781 40.2015C6.95781 37.6858 9.00469 35.639 11.5203 35.639C14.0359 35.639 16.0828 37.6858 16.0828 40.2015C16.0828 42.2468 14.7297 43.9827 12.8719 44.5593C13.1125 44.6437 13.3578 44.7374 13.6094 44.8483C14.2813 45.1468 14.8422 45.639 15.2531 46.2562H16.9703L19.0672 45.0421C20.9359 43.964 22.8078 44.8812 23.6219 46.2921C24.4484 47.7233 24.2984 49.7421 22.4125 50.8327L20.0828 52.1796C20.0766 52.1827 20.0703 52.1874 20.0641 52.1905C19.7594 52.3593 19.4297 52.4452 19.0812 52.4452H16.0109V53.8796H19.6078C20.7109 53.8796 21.6094 54.778 21.6094 55.8812V63.1843ZM16.0078 48.7546C16.0078 48.7796 16.0109 48.8046 16.0109 48.8296V49.9452H18.9531L21.1609 48.6687C21.7797 48.3108 21.6125 47.8077 21.4578 47.5405C21.3563 47.3655 20.975 46.8233 20.3156 47.2046L18.0984 48.4874C18.0922 48.4905 18.0859 48.4937 18.0797 48.4983C17.775 48.6671 17.4437 48.753 17.0953 48.753H16.0078V48.7546ZM9.45469 40.2015C9.45469 41.339 10.3812 42.2655 11.5187 42.2655C12.6562 42.2655 13.5828 41.3405 13.5828 40.2015C13.5828 39.0624 12.6562 38.1374 11.5187 38.1374C10.3812 38.1374 9.45469 39.064 9.45469 40.2015ZM11.5859 60.828H11.5187C11.1297 60.828 10.7531 60.778 10.3938 60.6858V61.8733C10.3938 62.2218 10.3094 62.5421 10.1344 62.8562C10.1312 62.8624 10.1281 62.8687 10.1234 62.8749L7.49688 67.4233C7.32812 67.714 7.31406 67.9624 7.45313 68.2015C7.62188 68.4952 7.98594 68.7077 8.31719 68.7077C8.48594 68.7077 8.73438 68.6624 8.96094 68.2702L11.5844 63.728V60.828H11.5859ZM19.1109 56.3765H15.5141C14.4109 56.3765 13.5125 55.478 13.5125 54.3749V48.8296C13.5125 48.0702 13.1359 47.3718 12.5953 47.1327C12.5953 47.1327 12.5937 47.1327 12.5922 47.1312C9.50469 45.7577 7.79844 47.4327 5.04688 50.514C4.45 51.1827 3.83281 51.8733 3.17188 52.5343C3.02188 52.6843 3 52.8624 3 52.9546C3 53.0468 3.02188 53.2265 3.17188 53.3765C3.4 53.6046 3.78594 53.6046 4.01406 53.3765L7.38906 50.0015C7.62813 49.7624 7.94688 49.6358 8.27188 49.6358C8.43281 49.6358 8.59531 49.6671 8.75 49.7312C9.21719 49.9249 9.52031 50.3796 9.52031 50.8843V56.3358C9.52031 56.8327 9.70469 57.2858 10.0063 57.6358C10.0453 57.6733 10.0812 57.7108 10.1141 57.753C10.475 58.1093 10.9703 58.3296 11.5172 58.3296H15.4219C16.525 58.3296 17.4234 59.228 17.4234 60.3312V63.1827C17.4234 63.6499 17.8016 64.028 18.2656 64.028C18.7234 64.028 19.1109 63.6405 19.1109 63.1827V56.3765Z" fill="url(#paint0_linear_158_238)"/>
</g>
<defs>
<linearGradient id="paint0_linear_158_238" x1="0.501875" y1="39.9999" x2="80.4981" y2="39.9999" gradientUnits="userSpaceOnUse">
<stop stop-color="#A647FE"/>
<stop offset="0.1488" stop-color="#A04CFC"/>
<stop offset="0.3414" stop-color="#905AF8"/>
<stop offset="0.5582" stop-color="#7571F0"/>
<stop offset="0.7908" stop-color="#5191E5"/>
<stop offset="1" stop-color="#29B4D9"/>
</linearGradient>
<clipPath id="clip0_158_238">
<rect width="80" height="80" fill="white" transform="translate(0.5)"/>
</clipPath>
</defs>
</svg>
