<svg width="30" height="30" viewBox="0 0 30 30" fill="none" xmlns="http://www.w3.org/2000/svg">
<g clip-path="url(#clip0_155_190)">
<path d="M2.84386 29.8122C2.10837 29.855 1.38502 29.6105 0.826333 29.1302C-0.275444 28.0219 -0.275444 26.2318 0.826333 25.1235L24.9517 0.99811C26.0976 -0.0741903 27.8958 -0.0145818 28.9681 1.13136C29.9377 2.16764 29.9942 3.76042 29.1004 4.86275L4.83293 29.1302C4.28151 29.6035 3.5697 29.8476 2.84386 29.8122Z" fill="#25094B"/>
<path d="M26.9409 29.8121C26.1955 29.809 25.4811 29.5131 24.9518 28.9881L0.826348 4.8626C-0.194392 3.67062 -0.0556169 1.87674 1.13637 0.855908C2.20025 -0.0551594 3.76926 -0.0551594 4.83304 0.855908L29.1005 24.9813C30.2462 26.0539 30.3054 27.8522 29.2328 28.9978C29.1901 29.0434 29.1461 29.0875 29.1005 29.1302C28.8065 29.3858 28.4631 29.5783 28.0916 29.6956C27.7201 29.8129 27.3284 29.8526 26.9409 29.8121Z" fill="#25094B"/>
</g>
<defs>
<clipPath id="clip0_155_190">
<rect width="30" height="30" fill="white"/>
</clipPath>
</defs>
</svg>
